<svg id="Capa_1" enable-background="new 0 0 511.976 511.976" height="512" viewBox="0 0 511.976 511.976" width="512" xmlns="http://www.w3.org/2000/svg"><g><path d="m491.432 289.07c-4.333-24.288-1.59-44.262-.271-53.86 3.061-22.289 9.626-38.971 14.42-51.151 5.629-14.303 10.075-25.6 1.947-33.833-10.288-10.421-30.585-3.54-47.114 3.623-21.805 9.447-41.358 24.442-58.246 44.597-9.978-10.336-27.365-26.435-51.286-41.48-23.333-14.676-47.671-25.27-72.806-31.72l34.684-30.421c1.896-1.663 2.829-4.168 2.484-6.666-.346-2.498-1.924-4.655-4.199-5.741-53.541-25.55-110.399-20.989-138.27 11.086-7.666 8.822-12.977 19.621-15.834 32.146-60.701 15.37-116.438 55.982-150.786 109.499-8.207 12.659-8.207 29.019 0 41.678 34.723 53.481 88.496 93.449 150.787 109.501 2.856 12.524 8.167 23.323 15.833 32.144 15.821 18.21 40.983 27.551 69.578 27.551 21.776 0 45.545-5.419 68.691-16.464 2.275-1.086 3.854-3.243 4.199-5.741s-.588-5.003-2.484-6.666l-34.692-30.429c25.139-6.446 49.482-17.037 72.814-31.712 30.944-19.463 50.968-40.698 58.141-48.925 1.19-1.366 1.847-3.116 1.847-4.929v-89.665c16.016-20.09 34.671-34.851 55.508-43.88 25.351-10.983 30.027-7.303 30.518-6.806.934 1.994-2.653 11.105-5.271 17.759-5.071 12.887-12.018 30.535-15.323 54.604-1.423 10.36-4.384 31.918.364 58.535 3.538 19.837 9.961 34.636 14.651 45.442 2.452 5.65 5.485 12.639 5.236 14.898-.865.478-7.059 2.896-30.175-7.12-13.045-5.652-25.394-13.667-36.701-23.824-3.081-2.766-7.823-2.513-10.592.568-2.768 3.082-2.513 7.823.568 10.592 12.515 11.239 26.229 20.132 40.762 26.428 13.776 5.97 24.55 8.94 32.707 8.94 6.426 0 11.229-1.844 14.598-5.517 7.319-7.981 2.923-18.112-2.644-30.938-4.395-10.125-10.414-23.994-13.643-42.103zm-307.334-185.728c10.91-12.556 28.522-20.391 49.594-22.062 19.199-1.52 39.847 1.94 60.303 10.051l-34.18 29.979c-14.701-2.564-29.649-3.747-44.807-3.523-13.888.193-27.759 1.598-41.444 4.158 2.442-7.111 5.963-13.343 10.534-18.603zm109.897 317.303c-20.458 8.109-41.105 11.571-60.304 10.051-21.071-1.671-38.684-9.506-49.594-22.063-4.571-5.26-8.091-11.491-10.533-18.602 13.685 2.56 27.555 3.965 41.443 4.158 1.149.017 2.288.024 3.435.024 13.973 0 27.767-1.198 41.35-3.567zm101.874-122.336c-7.967 8.826-26.056 27.073-52.974 44.004-39.896 25.094-82.863 37.508-127.679 36.878-26.595-.37-53.133-5.456-78.26-14.89 8.727-17.624 15.309-36.266 19.601-55.531.901-4.043-1.646-8.051-5.689-8.951-4.045-.906-8.051 1.646-8.951 5.689-4.104 18.426-10.447 36.24-18.869 53.058-6.578-2.958-13.037-6.221-19.349-9.786-34.079-19.246-63.457-46.949-84.958-80.114-4.993-7.702-4.993-17.655 0-25.357 21.501-33.165 50.879-60.868 84.958-80.114 6.331-3.575 12.809-6.847 19.406-9.812 12.229 24.511 25.122 61.411 24.227 107.033-.096 4.907-.355 9.888-.772 14.802-.35 4.128 2.713 7.757 6.84 8.107.216.018.43.026.643.026 3.854 0 7.133-2.955 7.465-6.866.443-5.237.721-10.545.823-15.775.941-48.003-12.439-86.946-25.319-113.055 25.111-9.42 51.63-14.5 78.206-14.87 1.072-.015 2.143-.022 3.213-.022 43.666 0 85.524 12.407 124.466 36.9 26.918 16.931 45.007 35.178 52.974 44.004v84.642z"/><path d="m72.762 231.054c-13.893 0-25.195 11.186-25.195 24.935s11.303 24.935 25.195 24.935c13.894 0 25.196-11.186 25.196-24.935s-11.303-24.935-25.196-24.935zm0 34.869c-5.622 0-10.195-4.457-10.195-9.935s4.573-9.935 10.195-9.935 10.196 4.457 10.196 9.935-4.574 9.935-10.196 9.935z"/><path d="m207.762 291.054c-4.143 0-7.5 3.357-7.5 7.5s3.357 7.5 7.5 7.5c5.622 0 10.196 4.457 10.196 9.935s-4.574 9.935-10.196 9.935c-4.143 0-7.5 3.357-7.5 7.5s3.357 7.5 7.5 7.5c13.894 0 25.196-11.186 25.196-24.935s-11.303-24.935-25.196-24.935z"/><path d="m207.762 231.054c-4.143 0-7.5 3.357-7.5 7.5s3.357 7.5 7.5 7.5c5.622 0 10.196 4.457 10.196 9.935s-4.574 9.935-10.196 9.935c-4.143 0-7.5 3.357-7.5 7.5s3.357 7.5 7.5 7.5c13.894 0 25.196-11.186 25.196-24.935s-11.303-24.935-25.196-24.935z"/><path d="m327.762 231.054c-4.143 0-7.5 3.357-7.5 7.5s3.357 7.5 7.5 7.5c5.622 0 10.196 4.457 10.196 9.935s-4.574 9.935-10.196 9.935c-4.143 0-7.5 3.357-7.5 7.5s3.357 7.5 7.5 7.5c13.894 0 25.196-11.186 25.196-24.935s-11.303-24.935-25.196-24.935z"/><path d="m207.762 171.054c-4.143 0-7.5 3.357-7.5 7.5s3.357 7.5 7.5 7.5c5.622 0 10.196 4.457 10.196 9.935s-4.574 9.935-10.196 9.935c-4.143 0-7.5 3.357-7.5 7.5s3.357 7.5 7.5 7.5c13.894 0 25.196-11.186 25.196-24.935s-11.303-24.935-25.196-24.935z"/><path d="m267.762 261.054c-4.143 0-7.5 3.357-7.5 7.5s3.357 7.5 7.5 7.5c5.622 0 10.196 4.457 10.196 9.935s-4.574 9.935-10.196 9.935c-4.143 0-7.5 3.357-7.5 7.5s3.357 7.5 7.5 7.5c13.894 0 25.196-11.186 25.196-24.935s-11.303-24.935-25.196-24.935z"/><path d="m267.762 201.054c-4.143 0-7.5 3.357-7.5 7.5s3.357 7.5 7.5 7.5c5.622 0 10.196 4.457 10.196 9.935s-4.574 9.935-10.196 9.935c-4.143 0-7.5 3.357-7.5 7.5s3.357 7.5 7.5 7.5c13.894 0 25.196-11.186 25.196-24.935s-11.303-24.935-25.196-24.935z"/></g></svg>